<svg xmlns="http://www.w3.org/2000/svg" viewBox="0 0 512 512">
    <path fill="#ff0808"
          d="M352.3 290.5c0 18-7.7 35.8-20.1 48.2l47.1 77.2c46.2-26.6 80.3-72.1 92.1-125.4H352.3zM309.4 226.8c16.5 6.8 29.8 19.9 37 36.2h128.9c.3-5.2.7-9.2.7-13.9 0-79.5-48.4-147.8-117.3-177.2l-49.3 154.9zM309.2 353.7c-7.4 3-15.4 4.9-23.9 5.2l-65.2-13c-10.3-2.1-20.9 1.9-27.2 10.3-6.4 8.3-7.4 19.6-2.7 29l7.6 15.2-7.6 15.2c-4.7 9.4-3.6 20.6 2.7 29 5.3 6.9 13.4 10.8 21.9 10.8 1.8 0 3.6-.2 5.4-.5l67-13.4c23.7-.4 46.3-5.4 67.3-13.7l-45.3-74.1zM332.6 63.3c-15.7-4.2-32.1-6.6-49.1-6.6h-220C48.3 56.7 36 69 36 84.2c0 75.8 61.7 137.5 137.5 137.5h108.7l50.4-158.4zm-227.9 62c-7.6 0-13.8-6.2-13.8-13.8 0-7.6 6.2-13.8 13.8-13.8 7.6 0 13.8 6.2 13.8 13.8 0 7.6-6.2 13.8-13.8 13.8z"/>
</svg>
